# xmcd
#
# Track frame offsets:
#	182
#	9537
#	14410
#	19145
#	24597
#	37775
#	60155
#	74930
#	91965
#	103430
#	123567
#	128735
#	157880
#	189875
#	255525
#	268575
#	275300
#	285525
#	290540
#	307140
#	314005
#	321042
#
# Disc length: 4749 seconds
#
# Revision: 0
# Processed by: cddbd v1.5.2PL0 Copyright (c) Steve Scherf et al.
# Submitted via: EasyCDDAExtractor 2011.3.0.0
#
DISCID=3a128b16
DTITLE=Gérard Philipe et Maria Casarès - Les plus beaux poemes de la langue Fr
DTITLE=ançaise
DYEAR=1991
DGENRE=
TTITLE0=L'adieux aux dames de la cour
TTITLE1=Je vis, je meurs..
TTITLE2=Heureux qui comme Ulysse
TTITLE3=A une jeune morte
TTITLE4=O France desolee
TTITLE5=Les deux pigeons
TTITLE6=le misanthrope
TTITLE7=Les adieux de "Berenice"
TTITLE8=La jeune Tarentine
TTITLE9=Le lac
TTITLE10=El Desdichado
TTITLE11=La mort du loup
TTITLE12=Booz endormi
TTITLE13=La nuit de mai
TTITLE14=Midi
TTITLE15=Recueillement
TTITLE16=Le saut du tremplin
TTITLE17=Les conquerants
TTITLE18=L'infante
TTITLE19=Brise marine
TTITLE20=Colloque sentimental
TTITLE21=Le bateau ivre
EXTD=
EXTT0=
EXTT1=
EXTT2=
EXTT3=
EXTT4=
EXTT5=
EXTT6=
EXTT7=
EXTT8=
EXTT9=
EXTT10=
EXTT11=
EXTT12=
EXTT13=
EXTT14=
EXTT15=
EXTT16=
EXTT17=
EXTT18=
EXTT19=
EXTT20=
EXTT21=
PLAYORDER=
